<?xml version="1.0" encoding="utf-8"?>
<svg xmlns="http://www.w3.org/2000/svg" xmlns:xlink="http://www.w3.org/1999/xlink" version="1.1" style="width:0;height:0;position:absolute;overflow:hidden;">
  <defs>
<symbol viewBox="0 0 574 1024" aria-labelledby="easi-ant-left-title" id="si-ant-left"><title id="easi-ant-left-title">icon left</title><path d="M564 9q10 10 10 23t-10 23L82 512l482 457q10 10 10 23t-10 23q-10 9-24 9t-24-9L10 535Q0 525 0 512t10-23L516 9q10-9 24-9t24 9z"/></symbol>
<symbol viewBox="0 0 574 1024" aria-labelledby="fqsi-ant-right-title" id="si-ant-right"><title id="fqsi-ant-right-title">icon right</title><path d="M10 9Q0 19 0 32t10 23l482 457L10 969Q0 979 0 992t10 23q10 9 24 9t24-9l506-480q10-10 10-23t-10-23L58 9Q48 0 34 0T10 9z"/></symbol>
  </defs>
</svg>
